<mxfile host="app.diagrams.net" modified="2020-04-06T15:08:40.445Z" agent="5.0 (Windows NT 10.0; Win64; x64) AppleWebKit/537.36 (KHTML, like Gecko) Chrome/80.0.3987.149 Safari/537.36" etag="dahssUN11whD652iQvLa" version="12.9.8" type="github">
  <diagram id="EITwoPFxarBsgcE0EHbk" name="Page-1">
    <mxGraphModel dx="1550" dy="777" grid="1" gridSize="10" guides="1" tooltips="1" connect="1" arrows="1" fold="1" page="1" pageScale="1" pageWidth="850" pageHeight="1100" math="0" shadow="0">
      <root>
        <mxCell id="0" />
        <mxCell id="1" parent="0" />
        <mxCell id="7qRQQf7Irq2023hDqVth-5" value="Puppet Agent" style="shape=umlLifeline;perimeter=lifelinePerimeter;whiteSpace=wrap;html=1;container=1;collapsible=0;recursiveResize=0;outlineConnect=0;" parent="1" vertex="1">
          <mxGeometry x="81" y="400" width="100" height="300" as="geometry" />
        </mxCell>
        <mxCell id="7qRQQf7Irq2023hDqVth-6" value="Puppet Server" style="shape=umlLifeline;perimeter=lifelinePerimeter;whiteSpace=wrap;html=1;container=1;collapsible=0;recursiveResize=0;outlineConnect=0;" parent="1" vertex="1">
          <mxGeometry x="291" y="400" width="100" height="300" as="geometry" />
        </mxCell>
        <mxCell id="7qRQQf7Irq2023hDqVth-18" value="get_classes(agentName, facts)" style="endArrow=block;endFill=1;endSize=6;html=1;verticalAlign=bottom;entryX=0.02;entryY=0.05;entryDx=0;entryDy=0;entryPerimeter=0;exitX=0.528;exitY=0.311;exitDx=0;exitDy=0;exitPerimeter=0;" parent="7qRQQf7Irq2023hDqVth-6" edge="1" source="7qRQQf7Irq2023hDqVth-6">
          <mxGeometry width="100" relative="1" as="geometry">
            <mxPoint x="60" y="93" as="sourcePoint" />
            <mxPoint x="255.19999999999982" y="91.5" as="targetPoint" />
          </mxGeometry>
        </mxCell>
        <mxCell id="7qRQQf7Irq2023hDqVth-14" value="request_catalog(agentName, facts)" style="html=1;verticalAlign=bottom;endArrow=block;entryX=-0.38;entryY=-0.004;entryDx=0;entryDy=0;entryPerimeter=0;" parent="1" source="7qRQQf7Irq2023hDqVth-5" edge="1">
          <mxGeometry relative="1" as="geometry">
            <mxPoint x="268" y="481" as="sourcePoint" />
            <mxPoint x="334.1999999999998" y="479.24" as="targetPoint" />
          </mxGeometry>
        </mxCell>
        <mxCell id="7qRQQf7Irq2023hDqVth-16" value="ENC" style="shape=umlLifeline;perimeter=lifelinePerimeter;whiteSpace=wrap;html=1;container=1;collapsible=0;recursiveResize=0;outlineConnect=0;" parent="1" vertex="1">
          <mxGeometry x="502" y="400" width="100" height="300" as="geometry" />
        </mxCell>
        <mxCell id="7qRQQf7Irq2023hDqVth-21" value="return assigned classes" style="html=1;verticalAlign=bottom;endArrow=open;dashed=1;endSize=8;entryX=0.528;entryY=0.399;entryDx=0;entryDy=0;entryPerimeter=0;" parent="1" source="7qRQQf7Irq2023hDqVth-16" edge="1" target="7qRQQf7Irq2023hDqVth-6">
          <mxGeometry relative="1" as="geometry">
            <mxPoint x="501" y="520" as="sourcePoint" />
            <mxPoint x="351" y="520" as="targetPoint" />
          </mxGeometry>
        </mxCell>
        <mxCell id="7qRQQf7Irq2023hDqVth-23" value="compile_class(agentName, facts)" style="edgeStyle=orthogonalEdgeStyle;html=1;align=left;spacingLeft=2;endArrow=block;rounded=0;entryX=1;entryY=0;" parent="1" edge="1">
          <mxGeometry relative="1" as="geometry">
            <mxPoint x="342" y="540" as="sourcePoint" />
            <Array as="points">
              <mxPoint x="367" y="540" />
            </Array>
            <mxPoint x="347" y="560" as="targetPoint" />
          </mxGeometry>
        </mxCell>
        <mxCell id="7qRQQf7Irq2023hDqVth-15" value="return_catalog()" style="html=1;verticalAlign=bottom;endArrow=open;dashed=1;endSize=8;" parent="1" target="7qRQQf7Irq2023hDqVth-5" edge="1">
          <mxGeometry relative="1" as="geometry">
            <mxPoint x="191" y="660" as="targetPoint" />
            <Array as="points">
              <mxPoint x="281" y="570" />
            </Array>
            <mxPoint x="338" y="570" as="sourcePoint" />
          </mxGeometry>
        </mxCell>
        <mxCell id="UPg-XeYSXLeJ-q9pR0p9-1" value="apply_catalog()" style="edgeStyle=orthogonalEdgeStyle;html=1;align=left;spacingLeft=2;endArrow=block;rounded=0;entryX=1;entryY=0;" edge="1" parent="1">
          <mxGeometry relative="1" as="geometry">
            <mxPoint x="131" y="590" as="sourcePoint" />
            <Array as="points">
              <mxPoint x="156" y="590" />
            </Array>
            <mxPoint x="136" y="610" as="targetPoint" />
          </mxGeometry>
        </mxCell>
        <mxCell id="UPg-XeYSXLeJ-q9pR0p9-2" value="send report" style="endArrow=block;endFill=1;endSize=6;html=1;verticalAlign=bottom;" edge="1" parent="1" target="7qRQQf7Irq2023hDqVth-6">
          <mxGeometry width="100" relative="1" as="geometry">
            <mxPoint x="131" y="650" as="sourcePoint" />
            <mxPoint x="231" y="650" as="targetPoint" />
          </mxGeometry>
        </mxCell>
      </root>
    </mxGraphModel>
  </diagram>
</mxfile>
